<svg width="28" height="28" viewBox="0 0 28 28" fill="none" xmlns="http://www.w3.org/2000/svg">
<circle cx="14" cy="14" r="14" fill="#1AD48E"/>
<path d="M8.04967 13.2142C7.45788 12.6345 6.50818 12.6443 5.92846 13.236C5.34875 13.8278 5.35854 14.7775 5.95033 15.3573L8.04967 13.2142ZM11.8125 19L10.7628 20.0715L11.8125 21.0998L12.8622 20.0715L11.8125 19ZM22.0497 11.0715C22.6415 10.4918 22.6513 9.54212 22.0715 8.95033C21.4918 8.35854 20.5421 8.34875 19.9503 8.92846L22.0497 11.0715ZM5.95033 15.3573L10.7628 20.0715L12.8622 17.9285L8.04967 13.2142L5.95033 15.3573ZM12.8622 20.0715L22.0497 11.0715L19.9503 8.92846L10.7628 17.9285L12.8622 20.0715Z" fill="white"/>
</svg>
