<svg width="131" height="20" viewBox="0 0 131 20" fill="none" xmlns="http://www.w3.org/2000/svg">
<path fill-rule="evenodd" clip-rule="evenodd" d="M47.7534 16.3098V7.3735L45.1693 13.0976H43.6707L41.0874 7.39516V16.3098H38.8066V3.2453H41.4126L44.4523 9.68998L47.4486 3.2453H50.0328V16.3098H47.7525M59.4209 6.19428L57.6623 11.35H61.1582L59.4209 6.19428ZM62.8298 16.3094L61.8746 13.5351H56.9454L55.9903 16.3094H53.5583L58.0966 3.24484H60.7456L65.2618 16.3094H62.8302H62.8298ZM75.8182 6.30353C75.8182 6.30353 75.8182 6.17261 75.7965 6.15094C75.666 5.9103 75.3187 5.47328 75.1013 5.45162H71.1711V8.94686H74.993C75.1882 8.94686 75.6226 8.5103 75.7965 8.20467C75.7965 8.20467 75.8182 8.16041 75.8182 8.11708V6.30353ZM76.1651 16.3094L73.2558 11.1315H71.1711V16.3098H68.8913V3.26697H74.993C75.5139 3.26697 76.1216 3.44215 76.5564 3.74779C76.8603 3.9663 77.5115 4.66516 77.7067 4.94913C77.9676 5.34236 78.098 5.82318 78.098 6.28186V8.16041C78.1023 8.63339 77.9662 9.09707 77.7067 9.49314C77.5115 9.77711 76.8603 10.4326 76.5564 10.6512C76.3825 10.7821 76.0134 10.9351 75.753 10.9785L78.858 16.3094H76.1651ZM84.6739 13.1198C84.6739 13.1198 84.6739 13.1852 84.6956 13.2074C84.956 13.6006 85.4126 14.0809 85.6512 14.2123C85.6947 14.234 85.7377 14.234 85.7599 14.234H86.2595L85.9357 13.4687L88.0199 12.7699L88.6475 14.234H88.9297C88.9297 14.234 88.9944 14.234 89.0384 14.2119C89.277 14.0809 89.6896 13.6006 89.95 13.2069C89.9722 13.1636 89.9722 13.1198 89.9722 13.1198V6.36899C89.9722 6.36899 89.9722 6.30353 89.95 6.28186C89.6896 5.88864 89.277 5.49541 89.0388 5.36449C88.9949 5.34236 88.9514 5.34236 88.9297 5.34236H85.7599C85.7599 5.34236 85.673 5.34236 85.6512 5.36449C85.4121 5.49541 84.956 5.88864 84.6956 6.28186C84.6739 6.32566 84.6739 6.36945 84.6739 6.36945V13.1198ZM89.4727 16.4186L90.3191 18.3193H87.9093L87.1059 16.4186H85.673C85.1952 16.4186 84.6739 16.2435 84.327 16.0254C83.8705 15.7631 83.0023 14.8236 82.7414 14.4525C82.481 14.0593 82.3941 13.6223 82.3941 13.2074V6.36899C82.3941 5.9541 82.481 5.51708 82.7414 5.12431C83.0023 4.75275 83.8705 3.81325 84.3265 3.55094C84.6739 3.33243 85.1952 3.15771 85.6725 3.15771H88.9732C89.4292 3.15771 89.9722 3.33289 90.3191 3.55094C90.7757 3.81325 91.6221 4.75275 91.9047 5.12385C92.1651 5.51708 92.2516 5.9541 92.2516 6.36899V13.2074C92.2516 13.6223 92.1651 14.0593 91.9047 14.4525C91.6226 14.8236 90.7757 15.7631 90.3196 16.0254C89.994 16.2006 89.7766 16.331 89.451 16.3748L89.4727 16.4186ZM96.8238 16.3098V3.2453H104.988V5.42995H99.1036V8.72881H104.64V10.9135H99.1036V14.1247H104.988V16.3098H96.8238ZM114.169 5.42995V16.3094H111.889V5.42995H108.372V3.24484H117.687V5.42995H114.17M124.363 6.19428L122.604 11.35H126.1L124.363 6.19428ZM127.771 16.3094L126.816 13.5351H121.887L120.932 16.3094H118.5L123.038 3.24484H125.687L130.203 16.3094H127.771Z" fill="#1C0976"/>
<path fill-rule="evenodd" clip-rule="evenodd" d="M0.231262 0.121582L6.74283 9.77708L0.231262 19.433H3.87326L10.3848 9.77708L5.48011 2.53534H9.1221L14.0074 9.77754L7.51526 19.433H18.4413L24.9334 9.77708L20.0731 2.53534H23.7151L28.5754 9.77754L22.0833 19.4326H25.7054L32.2169 9.77662L25.7054 0.121582H14.7969L21.2909 9.77708L16.4061 17.0197H12.7835L17.6494 9.77754L11.1568 0.121582H0.231262Z" fill="#1C0976"/>
</svg>
